Fly_normalized_Motion_pl04
version=1
nRows=10
nColumns=43
inDegrees=yes
endheader
time		pelvis_tilt		pelvis_list		pelvis_rotation		pelvis_tx		pelvis_ty		pelvis_tz		hip_flexion_r		hip_adduction_r		hip_rotation_r		knee_angle_r		ankle_angle_r		subtalar_angle_r		mtp_angle_r		hip_flexion_l		hip_adduction_l		hip_rotation_l		knee_angle_l		ankle_angle_l		subtalar_angle_l		mtp_angle_l		lumbar_extension		lumbar_bending		lumbar_rotation		neck_flexion		neck_lateral_bending		neck_rotation		arm_flex_r		arm_add_r		arm_rot_r		elbow_flex_r		pro_sup_r		wrist_flex_r		wrist_dev_r		hand_finger_flex_r		arm_flex_l		arm_add_l		arm_rot_l		elbow_flex_l		pro_sup_l		wrist_flex_l		wrist_dev_l		hand_finger_flex_l		
0.217500		-0.449712		-13.056067		88.105589		0.065510		1.811632		1.548494		45.333689		-2.339483		6.220198		-130.432562		7.612543		4.149945		30.048794		73.611277		-4.512517		4.463079		-119.606704		-11.689070		5.373319		26.877152		-39.241223		-2.482886		4.349115		26.068731		3.159319		-5.575237		86.591985		-25.697119		13.205510		71.127498		124.633029		-2.506963		-8.578244		0.362494		78.733284		-17.856696		12.794903		55.419697		100.479000		-18.757892		-5.036755		9.202176		
0.221692		-0.568780		-12.765565		88.212805		0.065021		1.811895		1.539963		44.436100		-2.486445		6.250195		-129.876945		5.887666		3.591099		30.282083		73.654505		-4.569899		3.816336		-118.302982		-11.825113		3.474356		26.332523		-39.259946		-2.580267		4.286235		25.644807		3.226238		-5.779863		86.614069		-25.463407		13.112120		70.561034		126.163353		-2.678550		-8.662352		1.233784		78.690049		-17.718099		12.862806		55.060455		100.700121		-18.538674		-4.925263		9.225189		
0.225884		-0.702759		-12.467301		88.293577		0.064538		1.812087		1.531435		43.579212		-2.609321		6.332720		-129.303978		3.982035		3.042310		30.536945		73.681935		-4.622639		3.145693		-117.022884		-11.842742		1.630230		25.496861		-39.298915		-2.705337		4.183017		25.222036		3.303716		-5.883244		86.528599		-24.965049		12.590709		69.961598		128.094101		-2.510732		-8.867052		2.398438		78.623615		-17.737991		13.054904		54.750033		100.869677		-18.319195		-4.940443		9.242588		
0.230076		-0.823369		-12.166274		88.332143		0.064040		1.812184		1.522891		42.768117		-2.701091		6.448990		-128.697722		1.967591		2.434948		30.602414		73.687509		-4.727244		2.499649		-115.768902		-11.734046		0.071602		24.503124		-39.348446		-2.837878		4.103531		24.859474		3.414439		-5.962983		86.412440		-24.422310		12.044323		69.350228		129.717608		-2.239101		-8.937207		3.348245		78.544310		-17.879817		13.414158		54.445555		100.881459		-18.185002		-5.038395		9.206528		
0.234268		-0.959688		-11.816763		88.436527		0.063369		1.812246		1.514192		41.922372		-2.893448		6.563754		-128.041713		-0.134727		2.139618		30.406602		73.597073		-4.709478		1.977723		-114.498694		-11.494524		-0.759589		23.675726		-39.445265		-2.954986		3.962767		24.402026		3.602313		-6.158047		86.246096		-24.102924		11.790113		68.805897		130.637001		-2.050477		-8.834165		3.873481		78.378654		-17.996987		13.701938		54.217251		100.835192		-18.124241		-5.122396		9.164683		
0.238460		-1.075367		-11.498436		88.557697		0.062534		1.812221		1.505316		41.092225		-3.087287		6.518299		-127.301383		-2.259083		0.942030		29.821536		73.513758		-4.690120		1.384853		-113.235825		-11.286234		-2.049030		22.299036		-39.524936		-3.003727		3.866103		23.992799		3.596437		-6.233333		85.980143		-23.953067		11.607529		68.481100		131.764152		-1.793905		-8.734422		4.426765		78.131885		-18.148088		14.032829		54.016649		100.762721		-18.103023		-5.385211		9.089983		
0.242652		-1.185928		-11.137931		88.690583		0.061476		1.812166		1.496198		40.226416		-3.330429		6.453611		-126.478795		-4.522553		-0.381313		28.709268		73.318422		-4.649484		0.838393		-111.963173		-10.956975		-2.935738		21.110475		-39.637658		-3.020549		3.783788		23.597466		3.565985		-6.353619		85.700814		-24.002078		11.703948		68.178844		132.415929		-1.651065		-8.487775		4.702054		77.810333		-18.200873		14.194571		53.797078		100.801601		-18.053670		-5.592291		9.055382		
0.246843		-1.300355		-10.759261		88.817618		0.060191		1.811995		1.486854		39.349986		-3.632601		6.395732		-125.557841		-6.936785		-1.821471		27.318708		73.056739		-4.587285		0.310470		-110.694118		-10.629304		-3.622309		20.251552		-39.752925		-3.016384		3.718685		23.228341		3.519656		-6.486314		85.375309		-24.152861		11.890035		67.875148		132.860270		-1.566274		-8.233574		4.902794		77.398655		-18.173767		14.215464		53.582514		100.894586		-17.986499		-5.729080		9.018636		
0.251035		-1.431205		-10.390203		88.939226		0.058905		1.811684		1.477489		38.524097		-3.962475		6.330195		-124.554859		-9.577692		-3.447163		25.699565		72.779358		-4.508850		-0.213455		-109.410971		-10.336033		-4.225805		19.463897		-39.862764		-3.033929		3.652740		22.869484		3.478886		-6.624653		85.009812		-24.313773		12.012426		67.539382		133.255270		-1.512798		-8.014841		5.144600		76.976172		-18.108021		14.193604		53.366361		100.985538		-17.908560		-5.826786		8.930337		
0.255227		-1.539759		-10.092211		89.064888		0.057774		1.811088		1.468183		37.821132		-4.267998		6.127363		-123.476951		-12.516236		-5.951179		23.339999		72.597578		-4.415356		-0.660211		-108.158821		-10.090267		-4.873014		18.407135		-39.890169		-3.047934		3.627871		22.464391		3.399730		-6.744442		84.528847		-24.522996		12.039030		67.263653		133.660828		-1.511797		-7.868669		5.544968		76.526964		-18.071189		14.245340		53.181648		101.134775		-17.742865		-5.938101		8.713862		
